<svg xmlns="http://www.w3.org/2000/svg" xmlns:xlink="http://www.w3.org/1999/xlink" width="1893" zoomAndPan="magnify" viewBox="0 0 1419.75 653.999997" height="872" preserveAspectRatio="xMidYMid meet" version="1.0"><defs><g/><clipPath id="1e31689a7e"><rect x="0" width="237" y="0" height="194"/></clipPath></defs><g fill="#e771a7" fill-opacity="1"><g transform="translate(412.265456, 588.86213)"><g><path d="M 143.46875 22.390625 C 129.007812 21.929688 114.78125 18.898438 100.78125 13.296875 C 86.78125 7.703125 75.226562 -0.691406 66.125 -11.890625 C 57.03125 -23.085938 52.484375 -37.320312 52.484375 -54.59375 C 52.484375 -66.257812 55.75 -82.351562 62.28125 -102.875 C 68.820312 -123.40625 77.457031 -146.734375 88.1875 -172.859375 C 98.914062 -198.992188 110.578125 -226.640625 123.171875 -255.796875 C 135.773438 -284.960938 148.140625 -313.890625 160.265625 -342.578125 C 172.398438 -371.273438 182.898438 -398.222656 191.765625 -423.421875 C 181.035156 -423.421875 170.421875 -422.953125 159.921875 -422.015625 C 149.421875 -421.085938 139.273438 -420.625 129.484375 -420.625 C 110.816406 -420.625 94.132812 -424.9375 79.4375 -433.5625 C 64.738281 -442.195312 57.390625 -457.25 57.390625 -478.71875 C 57.390625 -492.707031 59.835938 -506.816406 64.734375 -521.046875 C 69.640625 -535.285156 74.191406 -546.601562 78.390625 -555 C 87.722656 -549.40625 96.820312 -545.671875 105.6875 -543.796875 C 114.550781 -541.929688 123.414062 -541 132.28125 -541 C 154.207031 -541 179.632812 -542.984375 208.5625 -546.953125 C 237.488281 -550.921875 267.929688 -554.769531 299.890625 -558.5 C 331.859375 -562.226562 363.003906 -564.09375 393.328125 -564.09375 C 420.859375 -564.09375 443.019531 -556.628906 459.8125 -541.703125 C 476.613281 -526.773438 485.015625 -508.34375 485.015625 -486.40625 C 485.015625 -469.144531 479.414062 -451.414062 468.21875 -433.21875 C 456.550781 -436.488281 441.851562 -438.820312 424.125 -440.21875 C 406.394531 -441.625 389.832031 -442.328125 374.4375 -442.328125 C 356.707031 -442.328125 343.640625 -441.625 335.234375 -440.21875 C 309.578125 -393.09375 286.015625 -343.519531 264.546875 -291.5 C 243.085938 -239.476562 222.675781 -186.988281 203.3125 -134.03125 C 183.945312 -81.070312 164 -28.929688 143.46875 22.390625 Z M 143.46875 22.390625 "/></g></g></g><g fill="#e771a7" fill-opacity="1"><g transform="translate(687.581856, 355.546774)"><g><path d="M -4 -21 C -4 -24 -2.914062 -28.535156 -0.75 -34.609375 C 1.414062 -40.691406 4.207031 -47.691406 7.625 -55.609375 C 11.039062 -63.523438 14.75 -71.773438 18.75 -80.359375 C 22.75 -88.941406 26.539062 -97.398438 30.125 -105.734375 C 33.707031 -114.066406 36.785156 -121.601562 39.359375 -128.34375 C 41.941406 -135.09375 43.484375 -140.550781 43.984375 -144.71875 C 52.648438 -144.71875 59.441406 -141.550781 64.359375 -135.21875 C 69.273438 -128.882812 71.898438 -121.304688 72.234375 -112.484375 C 74.398438 -113.984375 76.941406 -116.148438 79.859375 -118.984375 C 82.773438 -121.816406 86.148438 -124.726562 89.984375 -127.71875 C 93.816406 -130.71875 98.023438 -133.21875 102.609375 -135.21875 C 107.191406 -137.21875 112.234375 -138.21875 117.734375 -138.21875 C 122.234375 -138.21875 125.644531 -136.507812 127.96875 -133.09375 C 130.300781 -129.675781 131.46875 -125.304688 131.46875 -119.984375 C 131.46875 -114.148438 129.96875 -107.734375 126.96875 -100.734375 C 123.976562 -93.734375 119.398438 -87.273438 113.234375 -81.359375 C 107.066406 -75.441406 99.234375 -71.066406 89.734375 -68.234375 C 92.566406 -72.066406 94.734375 -76.523438 96.234375 -81.609375 C 97.734375 -86.691406 98.484375 -90.898438 98.484375 -94.234375 C 98.484375 -98.566406 96.484375 -100.734375 92.484375 -100.734375 C 88.316406 -100.734375 82.898438 -98.484375 76.234375 -93.984375 C 69.566406 -89.484375 63.734375 -83.566406 58.734375 -76.234375 C 56.566406 -72.898438 53.984375 -68.066406 50.984375 -61.734375 C 47.984375 -55.398438 44.984375 -48.484375 41.984375 -40.984375 C 38.992188 -33.492188 36.25 -26.207031 33.75 -19.125 C 31.25 -12.039062 29.332031 -6 28 -1 C 24.164062 -1 19.75 -1.5 14.75 -2.5 C 9.75 -3.5 5.375 -5.457031 1.625 -8.375 C -2.125 -11.289062 -4 -15.5 -4 -21 Z M -4 -21 "/></g></g></g><g fill="#e771a7" fill-opacity="1"><g transform="translate(795.061686, 355.546774)"><g><path d="M 94.734375 -93.734375 C 97.566406 -94.566406 100.066406 -94.984375 102.234375 -94.984375 C 108.234375 -94.984375 113.316406 -93.023438 117.484375 -89.109375 C 121.648438 -85.191406 123.734375 -80.816406 123.734375 -75.984375 C 123.734375 -74.984375 123.023438 -73.023438 121.609375 -70.109375 C 120.191406 -67.191406 118.523438 -63.816406 116.609375 -59.984375 C 114.691406 -56.148438 113.023438 -52.148438 111.609375 -47.984375 C 110.191406 -43.816406 109.484375 -39.90625 109.484375 -36.25 C 109.484375 -34.582031 110.398438 -33.75 112.234375 -33.75 C 114.066406 -33.75 116.523438 -34.582031 119.609375 -36.25 C 122.691406 -37.914062 125.769531 -39.992188 128.84375 -42.484375 C 131.925781 -44.984375 134.382812 -47.484375 136.21875 -49.984375 L 136.71875 -49.984375 C 136.382812 -44.484375 135.21875 -38.816406 133.21875 -32.984375 C 131.21875 -27.160156 128.425781 -21.75 124.84375 -16.75 C 121.269531 -11.75 117.023438 -7.707031 112.109375 -4.625 C 107.191406 -1.539062 101.566406 0 95.234375 0 C 88.898438 0 83.898438 -2.332031 80.234375 -7 C 76.566406 -11.664062 74.066406 -16.832031 72.734375 -22.5 C 66.398438 -15 59.984375 -9.539062 53.484375 -6.125 C 46.984375 -2.707031 40.820312 -1 35 -1 C 26.332031 -1 19.039062 -4.457031 13.125 -11.375 C 7.207031 -18.289062 4.25 -27.664062 4.25 -39.5 C 4.25 -50.820312 6.414062 -61.484375 10.75 -71.484375 C 15.082031 -81.484375 20.914062 -90.484375 28.25 -98.484375 C 35.582031 -106.484375 43.703125 -113.394531 52.609375 -119.21875 C 61.523438 -125.050781 70.609375 -129.507812 79.859375 -132.59375 C 89.109375 -135.675781 97.816406 -137.21875 105.984375 -137.21875 C 113.816406 -137.21875 120.0625 -135.59375 124.71875 -132.34375 C 129.382812 -129.09375 131.71875 -124.640625 131.71875 -118.984375 C 131.71875 -113.148438 129.140625 -106.816406 123.984375 -99.984375 C 118.816406 -101.484375 113.816406 -102.234375 108.984375 -102.234375 C 100.148438 -102.234375 91.984375 -100.234375 84.484375 -96.234375 C 76.984375 -92.234375 70.484375 -87.273438 64.984375 -81.359375 C 59.484375 -75.441406 55.191406 -69.523438 52.109375 -63.609375 C 49.023438 -57.691406 47.484375 -52.816406 47.484375 -48.984375 C 47.484375 -44.816406 49.234375 -42.734375 52.734375 -42.734375 C 56.066406 -42.734375 59.898438 -44.398438 64.234375 -47.734375 C 68.566406 -51.066406 72.941406 -55.398438 77.359375 -60.734375 C 81.773438 -66.066406 85.566406 -71.648438 88.734375 -77.484375 C 91.898438 -83.316406 93.898438 -88.734375 94.734375 -93.734375 Z M 94.734375 -93.734375 "/></g></g></g><g fill="#e771a7" fill-opacity="1"><g transform="translate(928.286649, 355.546774)"><g><path d="M 37 0.75 C 29.832031 0.75 23.789062 -0.832031 18.875 -4 C 13.957031 -7.164062 10.207031 -10.875 7.625 -15.125 C 5.039062 -19.375 3.75 -23.082031 3.75 -26.25 C 3.75 -30.082031 4.539062 -35.578125 6.125 -42.734375 C 7.707031 -49.898438 9.707031 -57.984375 12.125 -66.984375 C 14.539062 -75.984375 17.039062 -85.066406 19.625 -94.234375 C 22.207031 -103.398438 24.5 -111.9375 26.5 -119.84375 C 28.5 -127.757812 29.832031 -134.21875 30.5 -139.21875 L 33 -139.21875 C 38 -139.21875 42.828125 -138.132812 47.484375 -135.96875 C 52.148438 -133.800781 55.941406 -130.632812 58.859375 -126.46875 C 61.773438 -122.3125 63.234375 -117.316406 63.234375 -111.484375 C 63.234375 -109.648438 62.398438 -106.148438 60.734375 -100.984375 C 59.066406 -95.816406 57.148438 -89.898438 54.984375 -83.234375 C 52.816406 -76.566406 50.898438 -70.066406 49.234375 -63.734375 C 47.566406 -57.398438 46.734375 -52.148438 46.734375 -47.984375 C 46.734375 -46.484375 46.816406 -45.398438 46.984375 -44.734375 C 51.148438 -47.234375 55.734375 -51.359375 60.734375 -57.109375 C 65.734375 -62.859375 70.859375 -69.484375 76.109375 -76.984375 C 81.359375 -84.484375 86.316406 -92.191406 90.984375 -100.109375 C 95.648438 -108.023438 99.691406 -115.519531 103.109375 -122.59375 C 106.523438 -129.675781 108.984375 -135.550781 110.484375 -140.21875 C 117.484375 -139.71875 122.351562 -137.71875 125.09375 -134.21875 C 127.84375 -130.71875 129.21875 -126.554688 129.21875 -121.734375 C 129.21875 -115.734375 127.507812 -108.566406 124.09375 -100.234375 C 120.6875 -91.898438 116.148438 -83.148438 110.484375 -73.984375 C 104.816406 -64.816406 98.566406 -55.816406 91.734375 -46.984375 C 84.898438 -38.160156 78.023438 -30.164062 71.109375 -23 C 64.191406 -15.832031 57.734375 -10.082031 51.734375 -5.75 C 45.734375 -1.414062 40.820312 0.75 37 0.75 Z M 37 0.75 "/></g></g></g><g fill="#e771a7" fill-opacity="1"><g transform="translate(1038.515929, 355.546774)"><g><path d="M 78.484375 -99.234375 C 75.984375 -99.234375 73.109375 -97.984375 69.859375 -95.484375 C 66.609375 -92.984375 63.398438 -89.691406 60.234375 -85.609375 C 57.066406 -81.523438 54.148438 -77.066406 51.484375 -72.234375 C 52.984375 -71.898438 54.484375 -71.648438 55.984375 -71.484375 C 57.484375 -71.316406 58.898438 -71.234375 60.234375 -71.234375 C 65.734375 -71.234375 70.316406 -72.359375 73.984375 -74.609375 C 77.648438 -76.859375 80.359375 -79.609375 82.109375 -82.859375 C 83.859375 -86.109375 84.734375 -89.066406 84.734375 -91.734375 C 84.734375 -93.898438 84.234375 -95.691406 83.234375 -97.109375 C 82.234375 -98.523438 80.648438 -99.234375 78.484375 -99.234375 Z M 64.484375 -47.484375 C 61.148438 -47.484375 57.816406 -47.941406 54.484375 -48.859375 C 51.148438 -49.773438 47.816406 -51.316406 44.484375 -53.484375 C 43.984375 -51.316406 43.734375 -49.148438 43.734375 -46.984375 C 43.734375 -42.660156 44.984375 -39.039062 47.484375 -36.125 C 49.984375 -33.207031 54.148438 -31.75 59.984375 -31.75 C 64.316406 -31.75 69.023438 -32.457031 74.109375 -33.875 C 79.191406 -35.289062 84.191406 -37.203125 89.109375 -39.609375 C 94.023438 -42.023438 98.359375 -44.566406 102.109375 -47.234375 C 105.859375 -49.898438 108.566406 -52.484375 110.234375 -54.984375 C 108.734375 -46.148438 105.523438 -38.234375 100.609375 -31.234375 C 95.691406 -24.242188 89.773438 -18.25 82.859375 -13.25 C 75.941406 -8.25 68.609375 -4.457031 60.859375 -1.875 C 53.109375 0.707031 45.570312 2 38.25 2 C 28.082031 2 19.332031 -0.789062 12 -6.375 C 4.664062 -11.957031 1 -20.832031 1 -33 C 1 -41.15625 2.75 -49.941406 6.25 -59.359375 C 9.75 -68.773438 14.539062 -78.023438 20.625 -87.109375 C 26.707031 -96.191406 33.578125 -104.484375 41.234375 -111.984375 C 48.898438 -119.484375 56.941406 -125.476562 65.359375 -129.96875 C 73.773438 -134.46875 81.984375 -136.71875 89.984375 -136.71875 C 101.148438 -136.71875 109.148438 -134.09375 113.984375 -128.84375 C 118.816406 -123.601562 121.234375 -117.234375 121.234375 -109.734375 C 121.234375 -102.734375 119.648438 -95.609375 116.484375 -88.359375 C 113.316406 -81.109375 109.066406 -74.398438 103.734375 -68.234375 C 98.398438 -62.066406 92.359375 -57.066406 85.609375 -53.234375 C 78.859375 -49.398438 71.816406 -47.484375 64.484375 -47.484375 Z M 64.484375 -47.484375 "/></g></g></g><g fill="#e771a7" fill-opacity="1"><g transform="translate(1148.495292, 355.546774)"><g><path d="M 89.984375 -61.984375 C 85.316406 -47.328125 79.691406 -35.457031 73.109375 -26.375 C 66.523438 -17.289062 59.648438 -10.664062 52.484375 -6.5 C 45.316406 -2.332031 38.488281 -0.25 32 -0.25 C 23.664062 -0.25 16.539062 -3.414062 10.625 -9.75 C 4.707031 -16.082031 1.75 -24.582031 1.75 -35.25 C 1.75 -41.570312 3.164062 -49.441406 6 -58.859375 C 8.832031 -68.273438 12.539062 -78.441406 17.125 -89.359375 C 21.707031 -100.273438 26.5 -111.351562 31.5 -122.59375 C 36.5 -133.84375 41.285156 -144.59375 45.859375 -154.84375 C 50.441406 -165.09375 54.148438 -174.21875 56.984375 -182.21875 C 59.816406 -190.21875 61.234375 -196.382812 61.234375 -200.71875 C 61.234375 -202.382812 61.066406 -203.550781 60.734375 -204.21875 C 61.566406 -204.382812 62.398438 -204.507812 63.234375 -204.59375 C 64.066406 -204.675781 64.898438 -204.71875 65.734375 -204.71875 C 70.066406 -204.71875 74.691406 -203.800781 79.609375 -201.96875 C 84.523438 -200.132812 88.734375 -197.550781 92.234375 -194.21875 C 95.734375 -190.882812 97.484375 -186.96875 97.484375 -182.46875 C 97.484375 -178.96875 95.816406 -173.882812 92.484375 -167.21875 C 89.148438 -160.550781 85.148438 -153.050781 80.484375 -144.71875 C 75.816406 -136.382812 71.484375 -127.722656 67.484375 -118.734375 C 65.484375 -114.234375 63.273438 -108.898438 60.859375 -102.734375 C 58.441406 -96.566406 56.066406 -90.148438 53.734375 -83.484375 C 51.398438 -76.816406 49.523438 -70.484375 48.109375 -64.484375 C 46.691406 -58.484375 45.984375 -53.484375 45.984375 -49.484375 C 45.984375 -43.828125 47.648438 -41 50.984375 -41 C 55.484375 -41 60.148438 -42.117188 64.984375 -44.359375 C 69.816406 -46.609375 74.398438 -49.359375 78.734375 -52.609375 C 83.066406 -55.859375 86.816406 -58.984375 89.984375 -61.984375 Z M 89.984375 -61.984375 "/></g></g></g><g fill="#e771a7" fill-opacity="1"><g transform="translate(136.942287, 531.464002)"><g><path d="M 40.734375 -34.328125 C 40.734375 -33.160156 41.054688 -32.578125 41.703125 -32.578125 C 49.460938 -34.910156 57.1875 -38.566406 64.875 -43.546875 C 72.570312 -48.523438 79.617188 -54.242188 86.015625 -60.703125 C 92.421875 -67.171875 97.53125 -73.894531 101.34375 -80.875 C 105.15625 -87.863281 107.0625 -94.523438 107.0625 -100.859375 C 107.0625 -106.929688 104.957031 -112.359375 100.75 -117.140625 C 96.550781 -121.929688 89.601562 -125.554688 79.90625 -128.015625 C 75.769531 -118.179688 71.632812 -108.675781 67.5 -99.5 C 63.363281 -90.320312 59.09375 -80.554688 54.6875 -70.203125 C 50.289062 -59.859375 45.640625 -47.898438 40.734375 -34.328125 Z M 32 0.78125 C 29.28125 0.78125 26.144531 0.457031 22.59375 -0.1875 C 19.039062 -0.832031 15.613281 -2.03125 12.3125 -3.78125 C 9.019531 -5.53125 6.273438 -7.953125 4.078125 -11.046875 C 1.878906 -14.148438 0.78125 -18.097656 0.78125 -22.890625 C 0.78125 -27.671875 1.8125 -33.328125 3.875 -39.859375 C 5.945312 -46.390625 8.660156 -53.5 12.015625 -61.1875 C 15.378906 -68.882812 18.90625 -76.769531 22.59375 -84.84375 C 26.28125 -92.925781 29.769531 -100.878906 33.0625 -108.703125 C 36.363281 -116.523438 39.082031 -123.925781 41.21875 -130.90625 C 43.351562 -137.894531 44.421875 -144.039062 44.421875 -149.34375 C 44.421875 -150.894531 44.289062 -152.445312 44.03125 -154 C 43.769531 -155.550781 43.054688 -156.972656 41.890625 -158.265625 C 44.085938 -159.554688 46.929688 -160.394531 50.421875 -160.78125 C 53.921875 -161.175781 57.285156 -161.375 60.515625 -161.375 C 67.878906 -161.375 75.410156 -160.757812 83.109375 -159.53125 C 90.804688 -158.300781 98.207031 -156.265625 105.3125 -153.421875 C 112.425781 -150.578125 118.828125 -146.859375 124.515625 -142.265625 C 130.203125 -137.671875 134.691406 -132.046875 137.984375 -125.390625 C 141.285156 -118.734375 142.9375 -110.878906 142.9375 -101.828125 C 142.9375 -93.035156 140.835938 -83.882812 136.640625 -74.375 C 132.441406 -64.875 126.6875 -55.660156 119.375 -46.734375 C 112.070312 -37.816406 103.703125 -29.800781 94.265625 -22.6875 C 84.828125 -15.582031 74.769531 -9.894531 64.09375 -5.625 C 53.425781 -1.351562 42.726562 0.78125 32 0.78125 Z M 32 0.78125 "/></g></g></g><g fill="#e771a7" fill-opacity="1"><g transform="translate(264.568286, 531.464002)"><g><path d="M 60.90625 -77 C 58.957031 -77 56.722656 -76.03125 54.203125 -74.09375 C 51.679688 -72.15625 49.191406 -69.597656 46.734375 -66.421875 C 44.285156 -63.253906 42.023438 -59.796875 39.953125 -56.046875 C 41.117188 -55.796875 42.28125 -55.601562 43.4375 -55.46875 C 44.601562 -55.34375 45.707031 -55.28125 46.75 -55.28125 C 51.007812 -55.28125 54.5625 -56.148438 57.40625 -57.890625 C 60.25 -59.640625 62.347656 -61.773438 63.703125 -64.296875 C 65.066406 -66.816406 65.75 -69.113281 65.75 -71.1875 C 65.75 -72.863281 65.359375 -74.25 64.578125 -75.34375 C 63.804688 -76.445312 62.582031 -77 60.90625 -77 Z M 50.046875 -36.84375 C 47.453125 -36.84375 44.863281 -37.195312 42.28125 -37.90625 C 39.695312 -38.625 37.113281 -39.820312 34.53125 -41.5 C 34.132812 -39.820312 33.9375 -38.144531 33.9375 -36.46875 C 33.9375 -33.101562 34.90625 -30.285156 36.84375 -28.015625 C 38.789062 -25.753906 42.023438 -24.625 46.546875 -24.625 C 49.910156 -24.625 53.5625 -25.171875 57.5 -26.265625 C 61.445312 -27.367188 65.328125 -28.859375 69.140625 -30.734375 C 72.953125 -32.609375 76.3125 -34.582031 79.21875 -36.65625 C 82.132812 -38.726562 84.238281 -40.734375 85.53125 -42.671875 C 84.363281 -35.816406 81.875 -29.671875 78.0625 -24.234375 C 74.25 -18.804688 69.660156 -14.148438 64.296875 -10.265625 C 58.929688 -6.390625 53.238281 -3.453125 47.21875 -1.453125 C 41.207031 0.546875 35.359375 1.546875 29.671875 1.546875 C 21.785156 1.546875 15 -0.613281 9.3125 -4.9375 C 3.625 -9.269531 0.78125 -16.160156 0.78125 -25.609375 C 0.78125 -31.941406 2.132812 -38.757812 4.84375 -46.0625 C 7.5625 -53.363281 11.28125 -60.535156 16 -67.578125 C 20.71875 -74.628906 26.050781 -81.066406 32 -86.890625 C 37.945312 -92.710938 44.1875 -97.367188 50.71875 -100.859375 C 57.25 -104.347656 63.617188 -106.09375 69.828125 -106.09375 C 78.484375 -106.09375 84.6875 -104.054688 88.4375 -99.984375 C 92.1875 -95.910156 94.0625 -90.960938 94.0625 -85.140625 C 94.0625 -79.710938 92.832031 -74.1875 90.375 -68.5625 C 87.925781 -62.9375 84.628906 -57.726562 80.484375 -52.9375 C 76.347656 -48.15625 71.660156 -44.273438 66.421875 -41.296875 C 61.191406 -38.328125 55.734375 -36.84375 50.046875 -36.84375 Z M 50.046875 -36.84375 "/></g></g></g><g fill="#e771a7" fill-opacity="1"><g transform="translate(349.910913, 531.464002)"><g><path d="M 20.359375 -0.578125 C 18.679688 -0.578125 16.484375 -0.835938 13.765625 -1.359375 C 11.054688 -1.878906 8.34375 -2.6875 5.625 -3.78125 C 2.90625 -4.882812 0.644531 -6.304688 -1.15625 -8.046875 C -2.96875 -9.796875 -3.875 -11.960938 -3.875 -14.546875 C -3.875 -17.390625 -2.773438 -21.65625 -0.578125 -27.34375 C 1.617188 -33.03125 4.429688 -39.492188 7.859375 -46.734375 C 11.285156 -53.984375 14.773438 -61.421875 18.328125 -69.046875 C 21.878906 -76.671875 25.078125 -83.878906 27.921875 -90.671875 C 30.773438 -97.460938 32.71875 -103.1875 33.75 -107.84375 C 36.59375 -107.84375 39.726562 -107.191406 43.15625 -105.890625 C 46.582031 -104.597656 49.554688 -102.820312 52.078125 -100.5625 C 54.597656 -98.300781 55.859375 -95.554688 55.859375 -92.328125 C 55.859375 -90.378906 55.695312 -88.367188 55.375 -86.296875 C 55.050781 -84.234375 54.4375 -81.972656 53.53125 -79.515625 C 58.050781 -83.398438 62.1875 -87.148438 65.9375 -90.765625 C 69.6875 -94.390625 73.597656 -97.363281 77.671875 -99.6875 C 81.742188 -102.019531 86.429688 -103.1875 91.734375 -103.1875 C 94.835938 -103.1875 97.617188 -101.925781 100.078125 -99.40625 C 102.535156 -96.882812 103.765625 -93.425781 103.765625 -89.03125 C 103.765625 -85.144531 102.566406 -80.8125 100.171875 -76.03125 C 97.785156 -71.25 95.039062 -66.332031 91.9375 -61.28125 C 88.832031 -56.238281 86.082031 -51.359375 83.6875 -46.640625 C 81.300781 -41.921875 80.109375 -37.6875 80.109375 -33.9375 C 80.109375 -30.832031 81.53125 -29.28125 84.375 -29.28125 C 86.3125 -29.28125 88.570312 -29.828125 91.15625 -30.921875 C 93.738281 -32.023438 96.226562 -33.351562 98.625 -34.90625 C 101.019531 -36.457031 102.863281 -37.753906 104.15625 -38.796875 C 103.507812 -34.785156 102.179688 -30.546875 100.171875 -26.078125 C 98.171875 -21.617188 95.617188 -17.484375 92.515625 -13.671875 C 89.410156 -9.859375 85.820312 -6.753906 81.75 -4.359375 C 77.675781 -1.972656 73.25 -0.78125 68.46875 -0.78125 C 60.320312 -0.78125 54.695312 -2.457031 51.59375 -5.8125 C 48.488281 -9.175781 46.9375 -13.445312 46.9375 -18.625 C 46.9375 -23.925781 47.773438 -29.0625 49.453125 -34.03125 C 51.140625 -39.007812 53.242188 -43.988281 55.765625 -48.96875 C 58.285156 -53.945312 60.644531 -58.957031 62.84375 -64 C 59.601562 -64 56.238281 -62.578125 52.75 -59.734375 C 49.257812 -56.890625 45.832031 -53.140625 42.46875 -48.484375 C 39.113281 -43.828125 35.976562 -38.71875 33.0625 -33.15625 C 30.15625 -27.601562 27.601562 -21.984375 25.40625 -16.296875 C 23.207031 -10.609375 21.523438 -5.367188 20.359375 -0.578125 Z M 20.359375 -0.578125 "/></g></g></g><g transform="matrix(1, 0, 0, 1, 622, 376)"><g clip-path="url(#1e31689a7e)"><g fill="#e771a7" fill-opacity="1"><g transform="translate(4.832243, 155.904465)"><g><path d="M -1.359375 -25.140625 C -1.359375 -29.015625 -0.265625 -33.945312 1.921875 -39.9375 C 4.117188 -45.9375 6.894531 -52.578125 10.25 -59.859375 C 13.601562 -67.148438 17.019531 -74.597656 20.5 -82.203125 C 23.988281 -89.816406 27.085938 -97.101562 29.796875 -104.0625 C 30.429688 -104.0625 31.101562 -104.09375 31.8125 -104.15625 C 32.53125 -104.226562 33.210938 -104.265625 33.859375 -104.265625 C 39.910156 -104.265625 44.90625 -103.394531 48.84375 -101.65625 C 52.78125 -99.914062 54.75 -96.976562 54.75 -92.84375 C 54.75 -91.039062 53.84375 -88.078125 52.03125 -83.953125 C 50.226562 -79.828125 47.972656 -75.117188 45.265625 -69.828125 C 42.554688 -64.546875 39.816406 -59.226562 37.046875 -53.875 C 34.273438 -48.519531 31.984375 -43.617188 30.171875 -39.171875 C 28.367188 -34.722656 27.46875 -31.273438 27.46875 -28.828125 C 27.46875 -26.242188 28.628906 -24.953125 30.953125 -24.953125 C 32.753906 -24.953125 35.007812 -25.628906 37.71875 -26.984375 C 40.425781 -28.335938 43.328125 -30.015625 46.421875 -32.015625 C 49.515625 -34.015625 52.414062 -36.109375 55.125 -38.296875 C 57.832031 -40.492188 60.09375 -42.429688 61.90625 -44.109375 C 61 -39.847656 59.351562 -35.140625 56.96875 -29.984375 C 54.582031 -24.828125 51.613281 -19.894531 48.0625 -15.1875 C 44.519531 -10.476562 40.457031 -6.609375 35.875 -3.578125 C 31.300781 -0.546875 26.367188 0.96875 21.078125 0.96875 C 16.566406 0.96875 12.601562 -0.316406 9.1875 -2.890625 C 5.769531 -5.472656 3.15625 -8.765625 1.34375 -12.765625 C -0.457031 -16.765625 -1.359375 -20.890625 -1.359375 -25.140625 Z M 59.765625 -116.640625 C 56.160156 -115.867188 52.9375 -115.484375 50.09375 -115.484375 C 45.71875 -115.484375 42.5625 -116.414062 40.625 -118.28125 C 38.6875 -120.15625 37.71875 -122.507812 37.71875 -125.34375 C 37.71875 -128.3125 38.554688 -131.566406 40.234375 -135.109375 C 41.910156 -138.660156 44.039062 -142.046875 46.625 -145.265625 C 53.84375 -145.265625 59 -144.328125 62.09375 -142.453125 C 65.1875 -140.585938 66.734375 -137.785156 66.734375 -134.046875 C 66.734375 -129.410156 64.410156 -123.609375 59.765625 -116.640625 Z M 59.765625 -116.640625 "/></g></g></g><g fill="#e771a7" fill-opacity="1"><g transform="translate(58.801236, 155.904465)"><g><path d="M -2.90625 -25.140625 C -2.90625 -29.273438 -1.679688 -33.050781 0.765625 -36.46875 C 3.222656 -39.882812 5.867188 -42.945312 8.703125 -45.65625 C 10.898438 -41.007812 13.800781 -37.265625 17.40625 -34.421875 C 21.019531 -31.585938 24.984375 -29.554688 29.296875 -28.328125 C 33.617188 -27.109375 37.71875 -26.5 41.59375 -26.5 C 46.226562 -26.5 50.191406 -27.269531 53.484375 -28.8125 C 56.773438 -30.363281 58.421875 -32.363281 58.421875 -34.8125 C 58.421875 -36.488281 56.9375 -37.78125 53.96875 -38.6875 C 51 -39.59375 47.320312 -40.492188 42.9375 -41.390625 C 38.550781 -42.296875 34.132812 -43.488281 29.6875 -44.96875 C 25.238281 -46.457031 21.53125 -48.457031 18.5625 -50.96875 C 15.601562 -53.488281 14.125 -56.875 14.125 -61.125 C 14.125 -67.1875 15.925781 -72.957031 19.53125 -78.4375 C 23.144531 -83.914062 27.820312 -88.75 33.5625 -92.9375 C 39.300781 -97.132812 45.554688 -100.457031 52.328125 -102.90625 C 59.097656 -105.351562 65.640625 -106.578125 71.953125 -106.578125 C 78.796875 -106.578125 83.601562 -104.738281 86.375 -101.0625 C 89.144531 -97.394531 90.53125 -92.914062 90.53125 -87.625 C 90.53125 -83.238281 89.785156 -78.691406 88.296875 -73.984375 C 86.816406 -69.273438 84.984375 -64.988281 82.796875 -61.125 C 81.242188 -66.664062 78.882812 -70.5 75.71875 -72.625 C 72.5625 -74.757812 69.3125 -75.828125 65.96875 -75.828125 C 63.125 -75.828125 60.410156 -75.28125 57.828125 -74.1875 C 55.253906 -73.09375 53.160156 -71.769531 51.546875 -70.21875 C 49.941406 -68.664062 49.140625 -67.117188 49.140625 -65.578125 C 49.140625 -62.992188 50.332031 -61.085938 52.71875 -59.859375 C 55.101562 -58.640625 58.035156 -57.546875 61.515625 -56.578125 C 64.992188 -55.609375 68.441406 -54.414062 71.859375 -53 C 75.273438 -51.582031 78.175781 -49.488281 80.5625 -46.71875 C 82.945312 -43.945312 84.140625 -40.046875 84.140625 -35.015625 C 84.140625 -29.460938 82.59375 -24.523438 79.5 -20.203125 C 76.40625 -15.890625 72.34375 -12.21875 67.3125 -9.1875 C 62.28125 -6.15625 56.703125 -3.832031 50.578125 -2.21875 C 44.453125 -0.613281 38.359375 0.1875 32.296875 0.1875 C 26.109375 0.1875 20.335938 -0.710938 14.984375 -2.515625 C 9.640625 -4.316406 5.320312 -7.085938 2.03125 -10.828125 C -1.257812 -14.566406 -2.90625 -19.335938 -2.90625 -25.140625 Z M -2.90625 -25.140625 "/></g></g></g><g fill="#e771a7" fill-opacity="1"><g transform="translate(144.880845, 155.904465)"><g><path d="M 70.21875 -53 C 69.3125 -48.488281 67.695312 -43.234375 65.375 -37.234375 C 63.0625 -31.234375 60.128906 -25.394531 56.578125 -19.71875 C 53.035156 -14.050781 48.878906 -9.347656 44.109375 -5.609375 C 39.335938 -1.867188 34.046875 0 28.234375 0 C 23.597656 0 19.503906 -1.253906 15.953125 -3.765625 C 12.410156 -6.285156 9.671875 -9.609375 7.734375 -13.734375 C 5.804688 -17.859375 4.84375 -22.375 4.84375 -27.28125 C 4.84375 -33.082031 5.742188 -39.078125 7.546875 -45.265625 C 9.347656 -51.453125 11.472656 -57.445312 13.921875 -63.25 C 16.378906 -69.050781 18.570312 -74.273438 20.5 -78.921875 C 17.925781 -80.335938 16.023438 -82.367188 14.796875 -85.015625 C 13.566406 -87.660156 12.953125 -90.335938 12.953125 -93.046875 C 12.953125 -96.398438 13.726562 -99.109375 15.28125 -101.171875 C 17.988281 -101.171875 20.953125 -101.394531 24.171875 -101.84375 C 27.398438 -102.289062 29.660156 -102.710938 30.953125 -103.109375 C 35.460938 -111.097656 39.457031 -119.054688 42.9375 -126.984375 C 46.425781 -134.921875 49.328125 -142.628906 51.640625 -150.109375 C 54.867188 -149.984375 58.285156 -149.113281 61.890625 -147.5 C 65.503906 -145.882812 68.566406 -143.691406 71.078125 -140.921875 C 73.597656 -138.148438 74.859375 -134.957031 74.859375 -131.34375 C 74.859375 -128.632812 74.082031 -125.828125 72.53125 -122.921875 C 70.988281 -120.023438 69.347656 -117.03125 67.609375 -113.9375 C 65.867188 -110.84375 64.675781 -107.75 64.03125 -104.65625 C 64.539062 -104.65625 65.019531 -104.6875 65.46875 -104.75 C 65.925781 -104.8125 66.410156 -104.84375 66.921875 -104.84375 C 71.566406 -104.84375 75.050781 -103.972656 77.375 -102.234375 C 79.695312 -100.492188 81.242188 -98.332031 82.015625 -95.75 C 82.785156 -93.175781 83.171875 -90.660156 83.171875 -88.203125 C 83.171875 -86.523438 83.109375 -85.007812 82.984375 -83.65625 C 82.859375 -82.300781 82.664062 -81.300781 82.40625 -80.65625 C 80.726562 -80.914062 79.082031 -81.046875 77.46875 -81.046875 C 75.851562 -81.046875 74.210938 -81.046875 72.546875 -81.046875 C 68.929688 -81.046875 65.316406 -80.882812 61.703125 -80.5625 C 58.097656 -80.238281 54.359375 -79.691406 50.484375 -78.921875 C 49.585938 -77.503906 48.300781 -75.085938 46.625 -71.671875 C 44.945312 -68.253906 43.171875 -64.382812 41.296875 -60.0625 C 39.429688 -55.738281 37.851562 -51.484375 36.5625 -47.296875 C 35.269531 -43.109375 34.625 -39.53125 34.625 -36.5625 C 34.625 -32.4375 36.429688 -30.375 40.046875 -30.375 C 42.617188 -30.375 45.742188 -31.40625 49.421875 -33.46875 C 53.097656 -35.53125 56.804688 -38.269531 60.546875 -41.6875 C 64.285156 -45.101562 67.507812 -48.875 70.21875 -53 Z M 70.21875 -53 "/></g></g></g></g></g></svg>